<svg width="140" height="45" viewBox="0 0 140 45" fill="none" xmlns="http://www.w3.org/2000/svg">
<path d="M122.936 23.234C125.699 23.234 127.939 21.005 127.939 18.2555C127.939 15.5059 125.699 13.277 122.936 13.277C120.173 13.277 117.933 15.5059 117.933 18.2555C117.933 21.005 120.173 23.234 122.936 23.234Z" fill="#EA5583"/>
<path d="M62.473 11.4847C65.1048 11.4847 67.2384 9.36148 67.2384 6.74235C67.2384 4.12322 65.1048 2 62.473 2C59.8411 2 57.7076 4.12322 57.7076 6.74235C57.7076 9.36148 59.8411 11.4847 62.473 11.4847Z" fill="#EA5583"/>
<path d="M10.8356 4.52479C9.52815 2.27114 6.6324 1.49898 4.36778 2.80013C2.10317 4.10128 1.32725 6.98302 2.63473 9.23668L15.7336 31.8148C17.0411 34.0684 19.9368 34.8406 22.2014 33.5395C24.466 32.2383 25.242 29.3566 23.9345 27.1029L10.8356 4.52479Z" fill="#004AAD"/>
<path d="M99.9576 32.8449C97.9905 34.5599 94.9998 34.3629 93.2764 32.4063L73.6101 10.2061C71.8868 8.24842 72.0847 5.2722 74.0508 3.55721C76.018 1.84222 79.0087 2.03918 80.732 3.99575L100.398 26.196C102.122 28.1537 101.924 31.1299 99.9576 32.8449Z" fill="#004AAD"/>
<path d="M38.0183 33.5762C35.7537 34.8776 32.8581 34.105 31.5503 31.8514L23.5088 18.6222C22.201 16.3685 22.9774 13.487 25.242 12.1855C27.5066 10.884 30.4021 11.6567 31.71 13.9103L39.7514 27.1395C41.0592 29.3931 40.2829 32.2747 38.0183 33.5762Z" fill="#004AAD"/>
<path d="M62.6118 34.0767C65.2264 34.0179 67.2974 31.8601 67.2373 29.2593L67.175 18.9922C67.1159 16.3903 64.9475 14.3292 62.3341 14.3891C59.7196 14.4479 57.6485 16.6057 57.7087 19.2065L57.771 29.4736C57.83 32.0755 59.9984 34.1366 62.6118 34.0767Z" fill="#004AAD"/>
<path d="M76.6314 34.0767C79.2459 34.0179 81.317 31.8601 81.2569 29.2593L81.1945 22.9129C81.1355 20.3111 78.9671 18.25 76.3537 18.3099C73.7392 18.3686 71.6681 20.5265 71.7282 23.1273L71.7906 29.4736C71.8496 32.0755 74.018 34.1366 76.6314 34.0767Z" fill="#004AAD"/>
<path d="M97.7007 18.4208C100.315 18.3621 102.386 16.2042 102.326 13.6034L102.264 6.81198C102.205 4.2101 100.036 2.14906 97.423 2.20891C94.8084 2.26768 92.7374 4.42556 92.7975 7.02635L92.8598 13.8178C92.9189 16.4196 95.0873 18.4807 97.7007 18.4208Z" fill="#004AAD"/>
<path d="M135.274 37.5284C134.067 37.5284 132.909 37.0181 132.098 36.129L129.272 33.0298C127.266 33.8819 125.075 34.3302 122.892 34.3302C118.421 34.3302 114.258 32.5576 111.169 29.3387C108.082 26.122 106.494 21.8976 106.701 17.4425C106.887 13.438 108.57 9.65869 111.44 6.80109C114.311 3.94349 118.108 2.26876 122.134 2.08485C122.39 2.07288 122.652 2.06744 122.908 2.06744C127.087 2.06744 131.057 3.65294 134.087 6.53231C137.322 9.60645 139.103 13.7492 139.103 18.1988C139.103 20.5515 137.18 22.4656 134.816 22.4656C132.452 22.4656 130.528 20.5515 130.528 18.1988C130.528 16.103 129.689 14.1518 128.166 12.7045C126.74 11.3497 124.866 10.6032 122.888 10.6032C122.769 10.6032 122.649 10.6054 122.528 10.6109C118.638 10.7893 115.449 13.9625 115.27 17.8343C115.172 19.9367 115.919 21.9292 117.374 23.4439C118.828 24.9598 120.79 25.7944 122.895 25.7944C124.218 25.7944 125.519 25.4538 126.657 24.8096C127.62 24.2655 128.706 23.9782 129.8 23.9782C131.58 23.9782 133.295 24.7389 134.504 26.0654L138.45 30.3921C139.22 31.2354 139.614 32.328 139.558 33.4662C139.504 34.6045 139.005 35.6535 138.157 36.4196C137.367 37.1334 136.344 37.5273 135.276 37.5273L135.274 37.5284Z" fill="#004AAD"/>
<path d="M51.1357 2.79984C48.8711 1.49836 45.9756 2.27098 44.6678 4.52463L31.1064 27.899L34.9204 31.8394L35.3458 30.0776L39.7099 31.9156L52.8678 9.23651C54.1756 6.98286 53.3992 4.10132 51.1346 2.79984H51.1357Z" fill="#004AAD"/>
<path d="M18.0469 42.5679C17.9528 42.7365 17.8085 42.8736 17.6127 42.977C17.4181 43.0804 17.1754 43.1326 16.8867 43.1326H16.352V44.3971H15.4892V40.8735H16.8867C17.1688 40.8735 17.4083 40.9225 17.6029 41.0194C17.7975 41.1162 17.9441 41.2501 18.0414 41.4209C18.1387 41.5917 18.1879 41.7876 18.1879 42.0085C18.1879 42.2131 18.1409 42.3992 18.0469 42.5679ZM17.1885 42.335C17.2694 42.2577 17.3098 42.1489 17.3098 42.0085C17.3098 41.8681 17.2694 41.7593 17.1885 41.6821C17.1076 41.6048 16.9851 41.5667 16.82 41.5667H16.3509V42.4503H16.82C16.9851 42.4503 17.1076 42.4122 17.1885 42.335Z" fill="#57595B"/>
<path d="M21.2169 44.2045C20.9424 44.0522 20.7259 43.84 20.5663 43.5668C20.4066 43.2937 20.3268 42.9868 20.3268 42.6462C20.3268 42.3056 20.4066 41.9988 20.5663 41.7278C20.7259 41.4568 20.9424 41.2446 21.2169 41.0923C21.4913 40.9399 21.791 40.8638 22.1168 40.8638C22.4427 40.8638 22.7478 40.9399 23.0222 41.0923C23.2967 41.2446 23.5121 41.4557 23.6707 41.7278C23.8292 41.9988 23.9079 42.3045 23.9079 42.6462C23.9079 42.9879 23.8292 43.2948 23.6707 43.5668C23.5132 43.84 23.2967 44.0522 23.0222 44.2045C22.7478 44.3569 22.446 44.433 22.1168 44.433C21.7877 44.433 21.4903 44.3569 21.2169 44.2045ZM22.7368 43.778C22.9183 43.6724 23.0605 43.5222 23.1633 43.3264C23.2661 43.1305 23.3175 42.9041 23.3175 42.6462C23.3175 42.3883 23.2661 42.1631 23.1633 41.9683C23.0605 41.7746 22.9183 41.6255 22.7368 41.5221C22.5553 41.4187 22.3486 41.3665 22.1168 41.3665C21.885 41.3665 21.6783 41.4187 21.4968 41.5221C21.3153 41.6255 21.1731 41.7746 21.0704 41.9683C20.9676 42.162 20.9162 42.3883 20.9162 42.6462C20.9162 42.9041 20.9676 43.1305 21.0704 43.3264C21.1731 43.5222 21.3153 43.6724 21.4968 43.778C21.6783 43.8835 21.885 43.9357 22.1168 43.9357C22.3486 43.9357 22.5553 43.8835 22.7368 43.778Z" fill="#57595B"/>
<path d="M26.8079 44.3101C26.6198 44.2285 26.4711 44.112 26.3639 43.9608C26.2567 43.8095 26.2021 43.6343 26.2021 43.4341H26.8177C26.8308 43.5843 26.891 43.7083 26.997 43.8052C27.1031 43.902 27.2518 43.951 27.4432 43.951C27.6345 43.951 27.7964 43.9031 27.9068 43.8084C28.0173 43.7127 28.073 43.5897 28.073 43.4395C28.073 43.322 28.0391 43.2273 27.9702 43.1533C27.9013 43.0793 27.815 43.0228 27.7133 42.9825C27.6105 42.9422 27.4683 42.8987 27.2868 42.8519C27.0583 42.7921 26.8724 42.73 26.7291 42.6691C26.5859 42.6071 26.4645 42.5113 26.3639 42.3807C26.2633 42.2501 26.213 42.076 26.213 41.8584C26.213 41.6582 26.2633 41.4819 26.3639 41.3317C26.4645 41.1815 26.6056 41.0662 26.7871 40.9857C26.9686 40.9051 27.1786 40.8649 27.418 40.8649C27.757 40.8649 28.0358 40.9497 28.2524 41.1184C28.4689 41.2871 28.5892 41.5189 28.6132 41.8138H27.9779C27.9681 41.6865 27.9068 41.5776 27.7964 41.4873C27.6848 41.397 27.5394 41.3513 27.3579 41.3513C27.1928 41.3513 27.0583 41.3926 26.9544 41.4764C26.8505 41.5602 26.798 41.681 26.798 41.8377C26.798 41.9454 26.8308 42.0325 26.8964 42.1011C26.962 42.1696 27.0451 42.224 27.1458 42.2643C27.2464 42.3046 27.3841 42.3481 27.5591 42.3949C27.7909 42.458 27.9801 42.5222 28.1266 42.5853C28.2731 42.6484 28.3967 42.7464 28.4995 42.8791C28.6023 43.0108 28.6537 43.1882 28.6537 43.4091C28.6537 43.5864 28.6056 43.754 28.5104 43.9107C28.4142 44.0685 28.2753 44.1947 28.0916 44.2894C27.9079 44.3852 27.6925 44.432 27.4432 44.432C27.2081 44.432 26.9959 44.3906 26.8079 44.309V44.3101Z" fill="#57595B"/>
<path d="M33.4147 40.9095V41.3763H32.4819V44.3982H31.9068V41.3763H30.9686V40.9095H33.4147Z" fill="#57595B"/>
<path d="M42.0806 41.6995C42.2315 41.4264 42.4425 41.2142 42.7137 41.0618C42.9838 40.9095 43.2911 40.8333 43.6344 40.8333C44.0543 40.8333 44.4141 40.9432 44.7137 41.1641C45.0133 41.385 45.2134 41.6865 45.314 42.0673H44.3659C44.2949 41.9204 44.1954 41.8083 44.0663 41.7311C43.9373 41.6538 43.7897 41.6157 43.6246 41.6157C43.3588 41.6157 43.1434 41.7082 42.9794 41.8921C42.8143 42.076 42.7323 42.322 42.7323 42.6299C42.7323 42.9379 42.8143 43.1838 42.9794 43.3677C43.1445 43.5516 43.3588 43.6441 43.6246 43.6441C43.7897 43.6441 43.9362 43.606 44.0663 43.5288C44.1954 43.4515 44.296 43.3394 44.3659 43.1925H45.314C45.2134 43.5745 45.0133 43.8748 44.7137 44.0935C44.4141 44.3123 44.0543 44.4222 43.6344 44.4222C43.2911 44.4222 42.9849 44.346 42.7137 44.1937C42.4425 44.0413 42.2326 43.8302 42.0806 43.5582C41.9297 43.2872 41.8531 42.9771 41.8531 42.6299C41.8531 42.2828 41.9286 41.9716 42.0806 41.6984V41.6995Z" fill="#57595B"/>
<path d="M48.4228 44.2045C48.1483 44.0522 47.9318 43.84 47.7722 43.5668C47.6125 43.2937 47.5327 42.9868 47.5327 42.6462C47.5327 42.3056 47.6125 41.9988 47.7722 41.7278C47.9318 41.4568 48.1483 41.2446 48.4228 41.0923C48.6972 40.9399 48.9969 40.8638 49.3227 40.8638C49.6486 40.8638 49.9537 40.9399 50.2281 41.0923C50.5026 41.2446 50.718 41.4557 50.8766 41.7278C51.0351 41.9988 51.1138 42.3045 51.1138 42.6462C51.1138 42.9879 51.0351 43.2948 50.8766 43.5668C50.7191 43.84 50.5026 44.0522 50.2281 44.2045C49.9537 44.3569 49.6519 44.433 49.3227 44.433C48.9936 44.433 48.6962 44.3569 48.4228 44.2045ZM49.9438 43.778C50.1253 43.6724 50.2675 43.5222 50.3703 43.3264C50.4731 43.1305 50.5245 42.9041 50.5245 42.6462C50.5245 42.3883 50.4731 42.1631 50.3703 41.9683C50.2675 41.7746 50.1253 41.6255 49.9438 41.5221C49.7623 41.4187 49.5556 41.3665 49.3238 41.3665C49.092 41.3665 48.8853 41.4187 48.7038 41.5221C48.5223 41.6255 48.3801 41.7746 48.2773 41.9683C48.1746 42.162 48.1232 42.3883 48.1232 42.6462C48.1232 42.9041 48.1746 43.1305 48.2773 43.3264C48.3801 43.5222 48.5223 43.6724 48.7038 43.778C48.8853 43.8835 49.092 43.9357 49.3238 43.9357C49.5556 43.9357 49.7623 43.8835 49.9438 43.778Z" fill="#57595B"/>
<path d="M56.3746 44.3982H55.7994L54.0695 41.7931V44.3982H53.4944V40.9051H54.0695L55.7994 43.5048V40.9051H56.3746V44.3982Z" fill="#57595B"/>
<path d="M61.8267 44.3982H61.2515L59.5217 41.7931V44.3982H58.9465V40.9051H59.5217L61.2515 43.5048V40.9051H61.8267V44.3982Z" fill="#57595B"/>
<path d="M64.9738 41.3708V42.3948H66.1842V42.8617H64.9738V43.9314H66.3351V44.3982H64.3986V40.9051H66.3351V41.3719H64.9738V41.3708Z" fill="#57595B"/>
<path d="M68.9048 41.7278C69.0645 41.4568 69.281 41.2446 69.5555 41.0923C69.8299 40.9399 70.1295 40.8638 70.4554 40.8638C70.8283 40.8638 71.1607 40.9552 71.4516 41.1369C71.7424 41.3197 71.9535 41.5776 72.0847 41.9128H71.3936C71.3029 41.7289 71.1771 41.5918 71.0153 41.5014C70.8534 41.4111 70.6675 41.3654 70.4554 41.3654C70.2236 41.3654 70.0169 41.4177 69.8354 41.521C69.6539 41.6244 69.5117 41.7735 69.4089 41.9672C69.3062 42.1609 69.2548 42.3872 69.2548 42.6451C69.2548 42.903 69.3062 43.1283 69.4089 43.3231C69.5117 43.5168 69.6539 43.667 69.8354 43.7725C70.0169 43.8781 70.2236 43.9303 70.4554 43.9303C70.6675 43.9303 70.8534 43.8846 71.0153 43.7943C71.1771 43.704 71.3029 43.5668 71.3936 43.3829H72.0847C71.9535 43.7181 71.7424 43.9749 71.4516 44.1556C71.1607 44.3362 70.8283 44.4265 70.4554 44.4265C70.1263 44.4265 69.8245 44.3503 69.5522 44.198C69.2799 44.0456 69.0634 43.8345 68.9037 43.5625C68.7441 43.2915 68.6643 42.9857 68.6643 42.6441C68.6643 42.3024 68.7441 41.9966 68.9037 41.7256L68.9048 41.7278Z" fill="#57595B"/>
<path d="M76.837 40.9095V41.3763H75.9042V44.3982H75.3291V41.3763H74.3909V40.9095H76.837Z" fill="#57595B"/>
<path d="M87.9435 45L87.4897 44.3928C87.3552 44.42 87.224 44.433 87.0961 44.433C86.7626 44.433 86.4575 44.3558 86.1808 44.2023C85.9031 44.0489 85.6833 43.8334 85.5204 43.557C85.3574 43.2806 85.2754 42.9705 85.2754 42.6255C85.2754 42.2806 85.3574 41.9715 85.5204 41.6973C85.6833 41.4231 85.9042 41.2087 86.1808 41.0553C86.4586 40.9018 86.7636 40.8246 87.0961 40.8246C87.4285 40.8246 87.7336 40.9018 88.0113 41.0553C88.2891 41.2098 88.5078 41.4231 88.6674 41.6973C88.8271 41.9715 88.9069 42.2817 88.9069 42.6255C88.9069 42.927 88.8456 43.2023 88.7232 43.4515C88.6007 43.7007 88.4301 43.9074 88.2114 44.0718L88.9878 45H87.9435ZM86.4126 43.371C86.5821 43.557 86.8107 43.6495 87.0961 43.6495C87.3815 43.6495 87.6045 43.556 87.774 43.3688C87.9435 43.1816 88.0288 42.9335 88.0288 42.6255C88.0288 42.3176 87.9435 42.0662 87.774 41.8801C87.6045 41.6941 87.3782 41.6016 87.0961 41.6016C86.8139 41.6016 86.5821 41.6941 86.4126 41.878C86.2432 42.0619 86.1579 42.3111 86.1579 42.6255C86.1579 42.94 86.2432 43.1849 86.4126 43.371Z" fill="#57595B"/>
<path d="M91.8473 40.9095V43.1327C91.8473 43.3971 91.9172 43.5962 92.0561 43.7301C92.1961 43.8639 92.3896 43.9303 92.6389 43.9303C92.8883 43.9303 93.0873 43.8628 93.2261 43.7301C93.3661 43.5962 93.435 43.3971 93.435 43.1327V40.9095H94.0102V43.1229C94.0102 43.4069 93.9478 43.6485 93.8232 43.8454C93.6985 44.0424 93.5323 44.1904 93.3235 44.2872C93.1146 44.3841 92.885 44.4331 92.6324 44.4331C92.3798 44.4331 92.1512 44.3841 91.9446 44.2872C91.7379 44.1904 91.5739 44.0424 91.4525 43.8454C91.3311 43.6485 91.271 43.4069 91.271 43.1229V40.9095H91.8462H91.8473Z" fill="#57595B"/>
<path d="M97.271 44.2045C96.9965 44.0522 96.78 43.84 96.6203 43.5668C96.4607 43.2937 96.3809 42.9868 96.3809 42.6462C96.3809 42.3056 96.4607 41.9988 96.6203 41.7278C96.78 41.4568 96.9965 41.2446 97.271 41.0923C97.5454 40.9399 97.845 40.8638 98.1709 40.8638C98.4967 40.8638 98.8018 40.9399 99.0763 41.0923C99.3508 41.2446 99.5662 41.4557 99.7247 41.7278C99.8833 41.9988 99.962 42.3045 99.962 42.6462C99.962 42.9879 99.8833 43.2948 99.7247 43.5668C99.5673 43.84 99.3508 44.0522 99.0763 44.2045C98.8018 44.3569 98.5 44.433 98.1709 44.433C97.8417 44.433 97.5443 44.3569 97.271 44.2045ZM98.792 43.778C98.9735 43.6724 99.1157 43.5222 99.2184 43.3264C99.3212 43.1305 99.3726 42.9041 99.3726 42.6462C99.3726 42.3883 99.3212 42.1631 99.2184 41.9683C99.1157 41.7746 98.9735 41.6255 98.792 41.5221C98.6105 41.4187 98.4038 41.3665 98.172 41.3665C97.9402 41.3665 97.7335 41.4187 97.552 41.5221C97.3705 41.6255 97.2283 41.7746 97.1255 41.9683C97.0227 42.162 96.9713 42.3883 96.9713 42.6462C96.9713 42.9041 97.0227 43.1305 97.1255 43.3264C97.2283 43.5222 97.3705 43.6724 97.552 43.778C97.7335 43.8835 97.9402 43.9357 98.172 43.9357C98.4038 43.9357 98.6105 43.8835 98.792 43.778Z" fill="#57595B"/>
<path d="M104.608 40.9095V41.3763H103.675V44.3982H103.1V41.3763H102.162V40.9095H104.608Z" fill="#57595B"/>
<path d="M107.578 41.3708V42.3948H108.789V42.8617H107.578V43.9314H108.94V44.3982H107.003V40.9051H108.94V41.3719H107.578V41.3708Z" fill="#57595B"/>
<path d="M117.731 41.6995C117.882 41.4264 118.093 41.2142 118.364 41.0618C118.634 40.9095 118.942 40.8333 119.285 40.8333C119.705 40.8333 120.065 40.9432 120.364 41.1641C120.664 41.385 120.864 41.6865 120.965 42.0673H120.017C119.945 41.9204 119.846 41.8083 119.717 41.7311C119.588 41.6538 119.44 41.6157 119.275 41.6157C119.009 41.6157 118.794 41.7082 118.63 41.8921C118.465 42.076 118.383 42.322 118.383 42.6299C118.383 42.9379 118.465 43.1838 118.63 43.3677C118.795 43.5516 119.009 43.6441 119.275 43.6441C119.44 43.6441 119.587 43.606 119.717 43.5288C119.846 43.4515 119.947 43.3394 120.017 43.1925H120.965C120.864 43.5745 120.664 43.8748 120.364 44.0935C120.065 44.3123 119.705 44.4222 119.285 44.4222C118.942 44.4222 118.635 44.346 118.364 44.1937C118.093 44.0413 117.883 43.8302 117.731 43.5582C117.58 43.2872 117.504 42.9771 117.504 42.6299C117.504 42.2828 117.579 41.9716 117.731 41.6984V41.6995Z" fill="#57595B"/>
<path d="M123.951 43.9357H125.136V44.3971H123.376V40.9084H123.951V43.9347V43.9357Z" fill="#57595B"/>
<path d="M128.129 44.2045C127.855 44.0522 127.638 43.84 127.478 43.5668C127.319 43.2937 127.239 42.9868 127.239 42.6462C127.239 42.3056 127.319 41.9988 127.478 41.7278C127.638 41.4568 127.855 41.2446 128.129 41.0923C128.404 40.9399 128.703 40.8638 129.029 40.8638C129.355 40.8638 129.66 40.9399 129.934 41.0923C130.209 41.2446 130.424 41.4557 130.583 41.7278C130.741 41.9988 130.82 42.3045 130.82 42.6462C130.82 42.9879 130.741 43.2948 130.583 43.5668C130.425 43.84 130.209 44.0522 129.934 44.2045C129.66 44.3569 129.358 44.433 129.029 44.433C128.7 44.433 128.402 44.3569 128.129 44.2045ZM129.65 43.778C129.832 43.6724 129.974 43.5222 130.077 43.3264C130.179 43.1305 130.231 42.9041 130.231 42.6462C130.231 42.3883 130.179 42.1631 130.077 41.9683C129.974 41.7746 129.832 41.6255 129.65 41.5221C129.469 41.4187 129.262 41.3665 129.03 41.3665C128.798 41.3665 128.592 41.4187 128.41 41.5221C128.229 41.6255 128.086 41.7746 127.984 41.9683C127.881 42.162 127.829 42.3883 127.829 42.6462C127.829 42.9041 127.881 43.1305 127.984 43.3264C128.086 43.5222 128.229 43.6724 128.41 43.778C128.592 43.8835 128.798 43.9357 129.03 43.9357C129.262 43.9357 129.469 43.8835 129.65 43.778Z" fill="#57595B"/>
<path d="M133.72 44.3101C133.532 44.2285 133.383 44.112 133.276 43.9608C133.169 43.8106 133.114 43.6343 133.114 43.4341H133.73C133.743 43.5843 133.803 43.7083 133.909 43.8052C134.015 43.902 134.164 43.951 134.355 43.951C134.547 43.951 134.709 43.9031 134.819 43.8084C134.929 43.7127 134.985 43.5897 134.985 43.4395C134.985 43.322 134.951 43.2273 134.882 43.1533C134.814 43.0793 134.727 43.0228 134.625 42.9825C134.523 42.9422 134.381 42.8987 134.199 42.8519C133.97 42.7921 133.785 42.73 133.641 42.6691C133.498 42.6071 133.377 42.5113 133.276 42.3807C133.176 42.2501 133.125 42.076 133.125 41.8584C133.125 41.6582 133.176 41.4819 133.276 41.3317C133.377 41.1815 133.518 41.0662 133.699 40.9857C133.881 40.9051 134.091 40.8649 134.33 40.8649C134.669 40.8649 134.948 40.9497 135.165 41.1184C135.381 41.2871 135.501 41.5189 135.525 41.8138H134.89C134.88 41.6865 134.819 41.5776 134.709 41.4873C134.597 41.397 134.452 41.3513 134.27 41.3513C134.105 41.3513 133.97 41.3926 133.867 41.4764C133.763 41.5602 133.71 41.681 133.71 41.8377C133.71 41.9454 133.743 42.0325 133.809 42.1011C133.874 42.1696 133.957 42.224 134.058 42.2643C134.159 42.3046 134.296 42.3481 134.471 42.3949C134.703 42.458 134.892 42.5222 135.039 42.5853C135.185 42.6484 135.309 42.7464 135.412 42.8791C135.514 43.0108 135.566 43.1882 135.566 43.4091C135.566 43.5864 135.518 43.754 135.423 43.9107C135.326 44.0685 135.188 44.1947 135.004 44.2894C134.82 44.3852 134.605 44.432 134.355 44.432C134.12 44.432 133.908 44.3906 133.72 44.309V44.3101Z" fill="#57595B"/>
<path d="M138.637 41.3708V42.3948H139.848V42.8617H138.637V43.9314H139.999V44.3982H138.062V40.9051H139.999V41.3719H138.637V41.3708Z" fill="#57595B"/>
<path d="M37.5218 43.3699C37.8781 43.3699 38.167 43.0824 38.167 42.7278C38.167 42.3733 37.8781 42.0858 37.5218 42.0858C37.1655 42.0858 36.8767 42.3733 36.8767 42.7278C36.8767 43.0824 37.1655 43.3699 37.5218 43.3699Z" fill="#EA5583"/>
<path d="M81.0021 43.3699C81.3584 43.3699 81.6472 43.0824 81.6472 42.7278C81.6472 42.3733 81.3584 42.0858 81.0021 42.0858C80.6458 42.0858 80.3569 42.3733 80.3569 42.7278C80.3569 43.0824 80.6458 43.3699 81.0021 43.3699Z" fill="#EA5583"/>
<path d="M113.149 43.3699C113.506 43.3699 113.795 43.0824 113.795 42.7278C113.795 42.3733 113.506 42.0858 113.149 42.0858C112.793 42.0858 112.504 42.3733 112.504 42.7278C112.504 43.0824 112.793 43.3699 113.149 43.3699Z" fill="#EA5583"/>
</svg>
